#!OML:ASF F:\VICON\USERDATA\INSTALL\Justin_Nancy\Justin_Nancy.ASF
:FULLY-SPECIFIED
:DEGREES
65
root -10.0365 15.6332 -5.86106 -12.7542 23.5592 -9.39315
lowerback 21.4033 1.18932 3.54297
upperback 4.15305 3.09376 7.1336
thorax -7.65551 1.5407 4.92397
lowerneck -12.0488 0.815218 -5.46321
upperneck 18.7296 2.29278 0.0423639
head 7.71116 0.736799 1.15426
rclavicle 1.0138e-014 4.6118e-014
rhumerus -49.7322 15.3605 -80.543
rradius 95.565
rwrist -9.79234
rhand -14.9435 26.7735
rfingers 7.12502
rthumb 11.2193 -2.90654
lclavicle 1.0138e-014 4.6118e-014
lhumerus -61.3795 -9.78948 95.33
lradius 120.987
lwrist 23.7786
lhand -19.8045 4.44656
lfingers 7.12502
lthumb 6.52853 34.3259
rfemur -23.0464 -0.502731 4.77479
rtibia 42.3836
rfoot -5.09308 1.08475
rtoes -30.9011
lfemur -31.6992 4.34083 -28.6858
ltibia 71.3466
lfoot -10.3085 1.71411
ltoes -0.108605
66
root -9.96299 15.6551 -5.50187 -12.2396 23.9101 -9.41056
lowerback 21.1861 1.19453 3.64853
upperback 4.08403 3.10598 7.07091
thorax -7.6074 1.5435 4.7913
lowerneck -12.3834 0.976713 -5.37866
upperneck 18.6055 2.54533 -0.10808
head 7.72619 0.849301 1.11778
rclavicle -1.27222e-014 2.54444e-014
rhumerus -49.6682 14.7207 -80.2553
rradius 95.0002
rwrist -11.0031
rhand -13.6434 26.2666
rfingers 7.12502
rthumb 12.4729 -3.34115
lclavicle -1.27222e-014 2.54444e-014
lhumerus -60.8892 -10.4455 94.8874
lradius 120.658
lwrist 23.6565
lhand -20.1425 4.35751
lfingers 7.12502
lthumb 6.20221 34.2467
rfemur -22.3879 0.589133 4.38961
rtibia 37.5491
rfoot -4.37703 2.32412
rtoes -31.0184
lfemur -32.7505 5.00489 -28.2867
ltibia 73.8771
lfoot -8.52222 0.705523
ltoes -3.95132
67
root -9.89379 15.6784 -5.14887 -11.9085 24.4397 -9.41465
lowerback 21.0358 1.02784 3.87479
upperback 4.17189 2.89702 6.84814
thorax -7.39333 1.43501 4.47069
lowerneck -12.8663 1.17072 -5.07326
upperneck 18.4786 2.7918 -0.206314
head 7.76838 0.97743 1.06357
rclavicle -4.75095e-014 1.66979e-014
rhumerus -49.0769 14.3376 -80.2964
rradius 94.1464
rwrist -12.3845
rhand -13.3703 25.3957
rfingers 7.12502
rthumb 12.7362 -4.19587
lclavicle -4.75095e-014 1.66979e-014
lhumerus -60.3246 -11.1302 94.1321
lradius 120.438
lwrist 23.9937
lhand -20.7317 4.64823
lfingers 7.12502
lthumb 5.63336 34.5534
rfemur -21.348 1.57743 4.02311
rtibia 33.119
rfoot -3.19776 3.1297
rtoes -30.4941
lfemur -33.7526 5.67212 -27.8612
ltibia 76.4168
lfoot -6.07754 -0.504929
ltoes -4.77665
68
root -9.83126 15.6939 -4.79624 -11.9322 25.1523 -9.62003
lowerback 20.7479 0.610079 4.61086
upperback 4.58078 2.40825 6.34574
thorax -6.71018 1.18463 3.62261
lowerneck -13.5436 1.43232 -4.55464
upperneck 18.1697 3.03277 -0.0573302
head 7.7827 1.14269 1.05613
rclavicle -3.81667e-014 -1.59028e-015
rhumerus -47.8454 13.9603 -80.9212
rradius 93.0873
rwrist -13.4656
rhand -13.7307 24.2907
rfingers 7.12502
rthumb 12.3888 -5.32222
lclavicle -3.81667e-014 -1.59028e-015
lhumerus -59.2309 -11.803 92.7586
lradius 120.025
lwrist 24.4903
lhand -21.1049 4.60478
lfingers 7.12502
lthumb 5.27306 34.5192
rfemur -19.925 2.42412 3.94896
rtibia 29.4391
rfoot -1.99996 2.48564
rtoes -29.6552
lfemur -34.5864 6.36008 -27.1758
ltibia 78.8986
lfoot -3.13898 -2.11016
ltoes -4.3004
69
root -9.78132 15.7023 -4.44134 -12.2601 26.0481 -10.2669
lowerback 20.259 0.664405 3.89745
upperback 5.14743 2.34257 7.33712
thorax -5.90547 1.18566 5.13558
lowerneck -13.831 1.52022 -5.19523
upperneck 17.6367 3.39515 -0.557619
head 7.65282 1.23412 1.03128
rclavicle 3.3197e-014 -4.77083e-015
rhumerus -46.8707 14.2696 -79.6019
rradius 92.4879
rwrist -14.494
rhand -13.851 23.4532
rfingers 7.12502
rthumb 12.2728 -6.16669
lclavicle 3.3197e-014 -4.77083e-015
lhumerus -57.9262 -11.6493 93.6876
lradius 119.471
lwrist 24.9695
lhand -21.5116 4.6572
lfingers 7.12502
lthumb 4.88034 34.581
rfemur -18.5519 3.29011 4.39611
rtibia 27.0032
rfoot -1.2281 0.388633
rtoes -27.8087
lfemur -35.5731 7.05389 -26.0334
ltibia 81.2341
lfoot -0.246579 -4.21293
ltoes -3.86495
70
root -9.73143 15.6946 -4.08583 -12.5836 27.3572 -10.7588
lowerback 20.0876 0.461232 3.65067
upperback 5.42567 2.03195 7.71417
thorax -5.51483 1.04427 5.77075
lowerneck -13.7582 1.63997 -5.18879
upperneck 17.0599 3.58799 -0.849628
head 7.45261 1.31398 0.946753
rclavicle -1.03368e-014 3.81667e-014
rhumerus -46.618 14.0978 -79.3903
rradius 92.0255
rwrist -15.0163
rhand -13.9542 23.6577
rfingers 7.12502
rthumb 12.1732 -5.96815
lclavicle -1.03368e-014 3.81667e-014
lhumerus -57.0426 -11.9343 93.9691
lradius 119.009
lwrist 25.7704
lhand -22.2459 4.82238
lfingers 7.12502
lthumb 4.17133 34.7613
rfemur -17.3334 3.27632 4.77552
rtibia 25.9701
rfoot -0.762585 -1.59821
rtoes -26.6747
lfemur -36.5772 7.38847 -25.2037
ltibia 83.3417
lfoot 2.15607 -6.47388
ltoes -2.30218
71
root -9.67499 15.6568 -3.73764 -12.6921 28.7878 -11.7374
lowerback 19.6295 0.163084 4.39098
upperback 5.4431 1.76774 7.86894
thorax -5.21677 0.91513 5.57659
lowerneck -13.993 1.58942 -5.10024
upperneck 16.8475 3.49709 -0.807204
head 7.42626 1.28348 0.937547
rclavicle -7.97127e-014 -1.43125e-014
rhumerus -46.5399 13.5348 -79.5568
rradius 91.4678
rwrist -15.0803
rhand -13.8997 24.5566
rfingers 7.12502
rthumb 12.2258 -5.06608
lclavicle -7.97127e-014 -1.43125e-014
lhumerus -56.2177 -12.6448 94.0758
lradius 118.46
lwrist 26.7915
lhand -22.3797 4.80231
lfingers 7.12502
lthumb 4.04215 34.7437
rfemur -17.0823 2.12917 5.66469
rtibia 26.6119
rfoot -0.446528 -2.59248
rtoes -28.5002
lfemur -38.2693 7.35055 -24.1852
ltibia 85.0127
lfoot 3.32157 -8.77342
ltoes -0.396171
72
root -9.60425 15.5723 -3.39619 -13.0345 30.1122 -14.263
lowerback 18.4603 -0.354803 6.73574
upperback 5.32934 1.46702 8.35093
thorax -4.65123 0.768623 4.82985
lowerneck -14.2009 1.49355 -5.19958
upperneck 16.496 3.37053 -0.721219
head 7.34684 1.23185 0.967496
rclavicle -8.94531e-015 -5.725e-014
rhumerus -46.1747 13.3666 -79.7015
rradius 90.7752
rwrist -14.6825
rhand -13.7506 24.951
rfingers 7.12502
rthumb 12.3696 -4.66305
lclavicle -8.94531e-015 -5.725e-014
lhumerus -55.2958 -13.1197 94.3427
lradius 117.763
lwrist 27.8188
lhand -22.18 4.56039
lfingers 7.12502
lthumb 4.23493 34.498
rfemur -17.8841 0.399398 7.8908
rtibia 28.7898
rfoot -0.656874 -2.77207
rtoes -30.8007
lfemur -41.0322 6.96077 -22.0314
ltibia 86.6924
lfoot 3.08517 -10.2971
ltoes 0.554488
73
root -9.60074 15.555 -2.97901 -14.3818 33.0429 -10.338
lowerback 21.4352 -0.190703 1.86463
upperback 6.25213 0.883517 7.57973
thorax -5.24712 0.500413 6.96285
lowerneck -14.3148 1.42369 -5.27483
upperneck 16.2779 3.22592 -0.383613
head 7.28983 1.19382 1.07391
rclavicle 3.69739e-014 -1.04958e-013
rhumerus -45.8265 13.4189 -80.1399
rradius 90.1839
rwrist -14.0645
rhand -13.5783 24.8852
rfingers 7.12502
rthumb 12.5357 -4.71873
lclavicle 3.69739e-014 -1.04958e-013
lhumerus -54.3467 -13.2685 94.5752
lradius 116.722
lwrist 28.4712
lhand -21.898 4.53705
lfingers 7.12502
lthumb 4.50721 34.4691
rfemur -13.7795 -0.29035 4.03396
rtibia 31.9266
rfoot -3.34131 -2.48329
rtoes -34.1861
lfemur -36.896 6.46736 -25.4237
ltibia 86.3028
lfoot 1.54293 -10.1617
ltoes 1.4289
74
root -9.56636 15.4966 -2.62964 -14.197 34.5804 -9.2677
lowerback 22.0753 -0.0111288 0.535292
upperback 6.33079 0.840479 7.21184
thorax -5.49578 0.487925 7.35563
lowerneck -14.3562 1.3073 -5.07701
upperneck 16.0566 2.97734 -0.169961
head 7.22851 1.11136 1.08418
rclavicle -2.34566e-014 2.06736e-014
rhumerus -45.5205 13.3966 -80.7211
rradius 89.6711
rwrist -13.7193
rhand -13.4064 24.9238
rfingers 7.12502
rthumb 12.7014 -4.66989
lclavicle -2.34566e-014 2.06736e-014
lhumerus -53.4223 -13.3605 94.6739
lradius 115.456
lwrist 28.7525
lhand -21.1802 4.34129
lfingers 7.12502
lthumb 5.20031 34.2575
rfemur -13.4687 -1.24279 3.01449
rtibia 35.3729
rfoot -5.3408 -2.38193
rtoes -31.4215
lfemur -37.3486 6.69179 -26.5528
ltibia 86.426
lfoot 0.693926 -9.29408
ltoes 3.83299
75
root -9.52379 15.4416 -2.29278 -14.5825 35.4233 -9.64017
lowerback 22.6121 0.19968 0.561728
upperback 6.36208 1.15589 7.21977
thorax -5.77686 0.650656 7.27527
lowerneck -14.4918 1.08579 -4.85946
upperneck 15.9402 2.61975 -0.108955
head 7.22429 0.960604 1.03269
rclavicle -3.12092e-014 -2.70347e-014
rhumerus -45.1015 13.4158 -81.2106
rradius 89.0825
rwrist -13.4742
rhand -13.1502 24.7271
rfingers 7.12502
rthumb 12.9484 -4.85111
lclavicle -3.12092e-014 -2.70347e-014
lhumerus -52.5393 -13.4261 95.0079
lradius 113.978
lwrist 28.5533
lhand -20.6972 4.57144
lfingers 7.12502
lthumb 5.66675 34.4757
rfemur -13.6485 -1.89447 3.49978
rtibia 38.7721
rfoot -7.90766 -2.87896
rtoes -28.6041
lfemur -38.3214 7.579 -26.3736
ltibia 86.3901
lfoot -0.721795 -9.02542
ltoes 4.2471
76
root -9.47166 15.3888 -1.94962 -15.4548 36.0955 -10.7832
lowerback 22.5744 0.382756 1.03013
upperback 6.74723 1.52245 7.57597
thorax -5.37946 0.826747 7.29247
lowerneck -14.9716 0.792273 -5.13557
upperneck 15.7998 2.26 0.136723
head 7.26463 0.794911 1.12388
rclavicle 7.55382e-014 -4.05521e-014
rhumerus -44.2156 13.5608 -81.4233
rradius 88.6566
rwrist -12.9901
rhand -12.8773 24.0853
rfingers 7.12502
rthumb 13.2115 -5.47602
lclavicle 7.55382e-014 -4.05521e-014
lhumerus -51.3592 -13.1685 95.6481
lradius 112.257
lwrist 27.9264
lhand -20.8883 4.96085
lfingers 7.12502
lthumb 5.48217 34.8699
rfemur -13.6599 -2.75817 4.73571
rtibia 41.7222
rfoot -9.73815 -3.87286
rtoes -30.5981
lfemur -39.3088 8.52489 -25.6958
ltibia 86.385
lfoot -3.04334 -9.06875
ltoes 2.23407
77
root -9.41889 15.3237 -1.60269 -16.6951 36.612 -12.7983
lowerback 22.4058 0.524624 2.21185
upperback 7.03947 2.0027 8.11761
thorax -5.01424 1.06518 7.072
lowerneck -14.9268 0.465 -5.31627
upperneck 15.2652 1.80545 0.318052
head 7.09138 0.594022 1.16037
rclavicle 3.93594e-014 -6.20208e-014
rhumerus -43.4076 13.8137 -81.7406
rradius 88.3428
rwrist -12.5367
rhand -13.1922 23.9709
rfingers 7.12502
rthumb 12.9079 -5.60989
lclavicle 3.93594e-014 -6.20208e-014
lhumerus -50.4547 -12.8639 96.3964
lradius 110.461
lwrist 27.0889
lhand -21.9587 5.78646
lfingers 7.12502
lthumb 4.44864 35.7197
rfemur -13.4242 -3.68215 6.82016
rtibia 44.0321
rfoot -11.294 -4.89778
rtoes -32.0112
lfemur -40.7044 9.23277 -24.4453
ltibia 86.4075
lfoot -5.17058 -8.52255
ltoes 1.79168
